<mxfile host="app.diagrams.net" modified="2024-07-06T16:18:53.792Z" agent="Mozilla/5.0 (Windows NT 10.0; Win64; x64) AppleWebKit/537.36 (KHTML, like Gecko) Chrome/126.0.0.0 Safari/537.36" etag="weZ9NAYPLlX4QCtPkWLQ" version="24.6.4" type="device">
  <diagram name="Page-1" id="e7e014a7-5840-1c2e-5031-d8a46d1fe8dd">
    <mxGraphModel dx="1434" dy="738" grid="1" gridSize="10" guides="1" tooltips="1" connect="1" arrows="1" fold="1" page="1" pageScale="1" pageWidth="1169" pageHeight="826" background="none" math="0" shadow="0">
      <root>
        <mxCell id="0" />
        <mxCell id="1" parent="0" />
        <mxCell id="g2pflZfeuzNcTQA4xTUA-43" value="Usuario" style="swimlane;fontStyle=1;align=center;verticalAlign=top;childLayout=stackLayout;horizontal=1;startSize=26;horizontalStack=0;resizeParent=1;resizeParentMax=0;resizeLast=0;collapsible=1;marginBottom=0;whiteSpace=wrap;html=1;" vertex="1" parent="1">
          <mxGeometry x="90" y="70" width="200" height="190" as="geometry" />
        </mxCell>
        <mxCell id="g2pflZfeuzNcTQA4xTUA-44" value="- id: Int auto_increment&lt;div&gt;- nome: String&lt;/div&gt;&lt;div&gt;- CPF: String&lt;/div&gt;&lt;div&gt;- email: String&lt;/div&gt;&lt;div&gt;- telefone: String&lt;/div&gt;&lt;div&gt;- endereco: String&lt;/div&gt;&lt;div&gt;- permissao: String&lt;/div&gt;&lt;div&gt;- senha: String&lt;/div&gt;" style="text;strokeColor=none;fillColor=none;align=left;verticalAlign=top;spacingLeft=4;spacingRight=4;overflow=hidden;rotatable=0;points=[[0,0.5],[1,0.5]];portConstraint=eastwest;whiteSpace=wrap;html=1;" vertex="1" parent="g2pflZfeuzNcTQA4xTUA-43">
          <mxGeometry y="26" width="200" height="124" as="geometry" />
        </mxCell>
        <mxCell id="g2pflZfeuzNcTQA4xTUA-45" value="" style="line;strokeWidth=1;fillColor=none;align=left;verticalAlign=middle;spacingTop=-1;spacingLeft=3;spacingRight=3;rotatable=0;labelPosition=right;points=[];portConstraint=eastwest;strokeColor=inherit;" vertex="1" parent="g2pflZfeuzNcTQA4xTUA-43">
          <mxGeometry y="150" width="200" height="8" as="geometry" />
        </mxCell>
        <mxCell id="g2pflZfeuzNcTQA4xTUA-46" value="+ set &amp;amp; get: ?" style="text;strokeColor=none;fillColor=none;align=left;verticalAlign=top;spacingLeft=4;spacingRight=4;overflow=hidden;rotatable=0;points=[[0,0.5],[1,0.5]];portConstraint=eastwest;whiteSpace=wrap;html=1;" vertex="1" parent="g2pflZfeuzNcTQA4xTUA-43">
          <mxGeometry y="158" width="200" height="32" as="geometry" />
        </mxCell>
        <mxCell id="g2pflZfeuzNcTQA4xTUA-47" value="Livro" style="swimlane;fontStyle=1;align=center;verticalAlign=top;childLayout=stackLayout;horizontal=1;startSize=26;horizontalStack=0;resizeParent=1;resizeParentMax=0;resizeLast=0;collapsible=1;marginBottom=0;whiteSpace=wrap;html=1;" vertex="1" parent="1">
          <mxGeometry x="730" y="70" width="200" height="190" as="geometry" />
        </mxCell>
        <mxCell id="g2pflZfeuzNcTQA4xTUA-48" value="- id: Int auto_increment&lt;div&gt;- titulo: String&lt;/div&gt;&lt;div&gt;- autor: String&lt;/div&gt;&lt;div&gt;- ISBN: String&lt;/div&gt;&lt;div&gt;- categoria: String&lt;/div&gt;&lt;div&gt;- copia: Int&lt;/div&gt;&lt;div&gt;- status: String&lt;/div&gt;" style="text;strokeColor=none;fillColor=none;align=left;verticalAlign=top;spacingLeft=4;spacingRight=4;overflow=hidden;rotatable=0;points=[[0,0.5],[1,0.5]];portConstraint=eastwest;whiteSpace=wrap;html=1;" vertex="1" parent="g2pflZfeuzNcTQA4xTUA-47">
          <mxGeometry y="26" width="200" height="124" as="geometry" />
        </mxCell>
        <mxCell id="g2pflZfeuzNcTQA4xTUA-49" value="" style="line;strokeWidth=1;fillColor=none;align=left;verticalAlign=middle;spacingTop=-1;spacingLeft=3;spacingRight=3;rotatable=0;labelPosition=right;points=[];portConstraint=eastwest;strokeColor=inherit;" vertex="1" parent="g2pflZfeuzNcTQA4xTUA-47">
          <mxGeometry y="150" width="200" height="8" as="geometry" />
        </mxCell>
        <mxCell id="g2pflZfeuzNcTQA4xTUA-50" value="+ set &amp;amp; get: ?" style="text;strokeColor=none;fillColor=none;align=left;verticalAlign=top;spacingLeft=4;spacingRight=4;overflow=hidden;rotatable=0;points=[[0,0.5],[1,0.5]];portConstraint=eastwest;whiteSpace=wrap;html=1;" vertex="1" parent="g2pflZfeuzNcTQA4xTUA-47">
          <mxGeometry y="158" width="200" height="32" as="geometry" />
        </mxCell>
        <mxCell id="g2pflZfeuzNcTQA4xTUA-51" value="Emprestimo" style="swimlane;fontStyle=1;align=center;verticalAlign=top;childLayout=stackLayout;horizontal=1;startSize=26;horizontalStack=0;resizeParent=1;resizeParentMax=0;resizeLast=0;collapsible=1;marginBottom=0;whiteSpace=wrap;html=1;" vertex="1" parent="1">
          <mxGeometry x="410" y="70" width="200" height="190" as="geometry" />
        </mxCell>
        <mxCell id="g2pflZfeuzNcTQA4xTUA-52" value="- id: Int auto_increment&lt;div&gt;- usuario_id: Int&lt;/div&gt;&lt;div&gt;- livro_id: Int&lt;/div&gt;&lt;div&gt;- dataEmprestimo: Date&lt;/div&gt;&lt;div&gt;- dataDevolucao: Date&lt;/div&gt;" style="text;strokeColor=none;fillColor=none;align=left;verticalAlign=top;spacingLeft=4;spacingRight=4;overflow=hidden;rotatable=0;points=[[0,0.5],[1,0.5]];portConstraint=eastwest;whiteSpace=wrap;html=1;" vertex="1" parent="g2pflZfeuzNcTQA4xTUA-51">
          <mxGeometry y="26" width="200" height="124" as="geometry" />
        </mxCell>
        <mxCell id="g2pflZfeuzNcTQA4xTUA-53" value="" style="line;strokeWidth=1;fillColor=none;align=left;verticalAlign=middle;spacingTop=-1;spacingLeft=3;spacingRight=3;rotatable=0;labelPosition=right;points=[];portConstraint=eastwest;strokeColor=inherit;" vertex="1" parent="g2pflZfeuzNcTQA4xTUA-51">
          <mxGeometry y="150" width="200" height="8" as="geometry" />
        </mxCell>
        <mxCell id="g2pflZfeuzNcTQA4xTUA-54" value="+ set &amp;amp; get: ?" style="text;strokeColor=none;fillColor=none;align=left;verticalAlign=top;spacingLeft=4;spacingRight=4;overflow=hidden;rotatable=0;points=[[0,0.5],[1,0.5]];portConstraint=eastwest;whiteSpace=wrap;html=1;" vertex="1" parent="g2pflZfeuzNcTQA4xTUA-51">
          <mxGeometry y="158" width="200" height="32" as="geometry" />
        </mxCell>
        <mxCell id="g2pflZfeuzNcTQA4xTUA-60" value="LivroDAO" style="swimlane;fontStyle=1;align=center;verticalAlign=top;childLayout=stackLayout;horizontal=1;startSize=26;horizontalStack=0;resizeParent=1;resizeParentMax=0;resizeLast=0;collapsible=1;marginBottom=0;whiteSpace=wrap;html=1;" vertex="1" parent="1">
          <mxGeometry x="730" y="320" width="200" height="140" as="geometry" />
        </mxCell>
        <mxCell id="g2pflZfeuzNcTQA4xTUA-62" value="" style="line;strokeWidth=1;fillColor=none;align=left;verticalAlign=middle;spacingTop=-1;spacingLeft=3;spacingRight=3;rotatable=0;labelPosition=right;points=[];portConstraint=eastwest;strokeColor=inherit;" vertex="1" parent="g2pflZfeuzNcTQA4xTUA-60">
          <mxGeometry y="26" width="200" height="8" as="geometry" />
        </mxCell>
        <mxCell id="g2pflZfeuzNcTQA4xTUA-63" value="+ cadastrar(Livro): void&lt;div&gt;+ listar(String): List&amp;lt;Livro&amp;gt;&lt;/div&gt;&lt;div&gt;+ excluir(int): void&lt;/div&gt;&lt;div&gt;+ obter(int): Livro&lt;br&gt;+ atualizar(Livro): void&lt;br&gt;&lt;div&gt;&lt;br&gt;&lt;/div&gt;&lt;/div&gt;" style="text;strokeColor=none;fillColor=none;align=left;verticalAlign=top;spacingLeft=4;spacingRight=4;overflow=hidden;rotatable=0;points=[[0,0.5],[1,0.5]];portConstraint=eastwest;whiteSpace=wrap;html=1;" vertex="1" parent="g2pflZfeuzNcTQA4xTUA-60">
          <mxGeometry y="34" width="200" height="106" as="geometry" />
        </mxCell>
        <mxCell id="g2pflZfeuzNcTQA4xTUA-64" value="UsuarioDAO" style="swimlane;fontStyle=1;align=center;verticalAlign=top;childLayout=stackLayout;horizontal=1;startSize=26;horizontalStack=0;resizeParent=1;resizeParentMax=0;resizeLast=0;collapsible=1;marginBottom=0;whiteSpace=wrap;html=1;" vertex="1" parent="1">
          <mxGeometry x="90" y="320" width="200" height="140" as="geometry" />
        </mxCell>
        <mxCell id="g2pflZfeuzNcTQA4xTUA-65" value="" style="line;strokeWidth=1;fillColor=none;align=left;verticalAlign=middle;spacingTop=-1;spacingLeft=3;spacingRight=3;rotatable=0;labelPosition=right;points=[];portConstraint=eastwest;strokeColor=inherit;" vertex="1" parent="g2pflZfeuzNcTQA4xTUA-64">
          <mxGeometry y="26" width="200" height="8" as="geometry" />
        </mxCell>
        <mxCell id="g2pflZfeuzNcTQA4xTUA-66" value="+ cadastrar(Usuario): void&lt;div&gt;+ listar(String): List&amp;lt;Usuario&amp;gt;&lt;/div&gt;&lt;div&gt;+ excluir(int): void&lt;/div&gt;&lt;div&gt;+ obter(int): Usuario&lt;br&gt;+ atualizar(Usuario): void&lt;br&gt;&lt;div&gt;&lt;br&gt;&lt;/div&gt;&lt;/div&gt;" style="text;strokeColor=none;fillColor=none;align=left;verticalAlign=top;spacingLeft=4;spacingRight=4;overflow=hidden;rotatable=0;points=[[0,0.5],[1,0.5]];portConstraint=eastwest;whiteSpace=wrap;html=1;" vertex="1" parent="g2pflZfeuzNcTQA4xTUA-64">
          <mxGeometry y="34" width="200" height="106" as="geometry" />
        </mxCell>
        <mxCell id="g2pflZfeuzNcTQA4xTUA-67" value="EmprestimoDAO" style="swimlane;fontStyle=1;align=center;verticalAlign=top;childLayout=stackLayout;horizontal=1;startSize=26;horizontalStack=0;resizeParent=1;resizeParentMax=0;resizeLast=0;collapsible=1;marginBottom=0;whiteSpace=wrap;html=1;" vertex="1" parent="1">
          <mxGeometry x="410" y="320" width="200" height="140" as="geometry" />
        </mxCell>
        <mxCell id="g2pflZfeuzNcTQA4xTUA-68" value="" style="line;strokeWidth=1;fillColor=none;align=left;verticalAlign=middle;spacingTop=-1;spacingLeft=3;spacingRight=3;rotatable=0;labelPosition=right;points=[];portConstraint=eastwest;strokeColor=inherit;" vertex="1" parent="g2pflZfeuzNcTQA4xTUA-67">
          <mxGeometry y="26" width="200" height="8" as="geometry" />
        </mxCell>
        <mxCell id="g2pflZfeuzNcTQA4xTUA-69" value="+ cadastrar(Emprestimo): void&lt;div&gt;+ listar(String): List&amp;lt;Emprestimo&amp;gt;&lt;/div&gt;&lt;div&gt;+ excluir(int): void&lt;/div&gt;&lt;div&gt;+ obter(int): Emprestimo&lt;br&gt;+ atualizar(Emprestimo): void&lt;/div&gt;&lt;div&gt;+ obterPorLivro(Int): Emprestimo&lt;/div&gt;&lt;div&gt;&lt;br&gt;&lt;div&gt;&lt;br&gt;&lt;/div&gt;&lt;/div&gt;" style="text;strokeColor=none;fillColor=none;align=left;verticalAlign=top;spacingLeft=4;spacingRight=4;overflow=hidden;rotatable=0;points=[[0,0.5],[1,0.5]];portConstraint=eastwest;whiteSpace=wrap;html=1;" vertex="1" parent="g2pflZfeuzNcTQA4xTUA-67">
          <mxGeometry y="34" width="200" height="106" as="geometry" />
        </mxCell>
        <mxCell id="g2pflZfeuzNcTQA4xTUA-70" value="UsuarioBD" style="swimlane;fontStyle=1;align=center;verticalAlign=top;childLayout=stackLayout;horizontal=1;startSize=26;horizontalStack=0;resizeParent=1;resizeParentMax=0;resizeLast=0;collapsible=1;marginBottom=0;whiteSpace=wrap;html=1;" vertex="1" parent="1">
          <mxGeometry x="90" y="520" width="200" height="80" as="geometry" />
        </mxCell>
        <mxCell id="g2pflZfeuzNcTQA4xTUA-71" value="" style="line;strokeWidth=1;fillColor=none;align=left;verticalAlign=middle;spacingTop=-1;spacingLeft=3;spacingRight=3;rotatable=0;labelPosition=right;points=[];portConstraint=eastwest;strokeColor=inherit;" vertex="1" parent="g2pflZfeuzNcTQA4xTUA-70">
          <mxGeometry y="26" width="200" height="8" as="geometry" />
        </mxCell>
        <mxCell id="g2pflZfeuzNcTQA4xTUA-72" value="+ validarUsuarioSeguro&lt;div&gt;(Usuario):&amp;nbsp;&lt;span style=&quot;background-color: initial;&quot;&gt;Usuario&lt;/span&gt;&lt;div&gt;&lt;div&gt;&lt;div&gt;&lt;br&gt;&lt;/div&gt;&lt;/div&gt;&lt;/div&gt;&lt;/div&gt;" style="text;strokeColor=none;fillColor=none;align=left;verticalAlign=top;spacingLeft=4;spacingRight=4;overflow=hidden;rotatable=0;points=[[0,0.5],[1,0.5]];portConstraint=eastwest;whiteSpace=wrap;html=1;" vertex="1" parent="g2pflZfeuzNcTQA4xTUA-70">
          <mxGeometry y="34" width="200" height="46" as="geometry" />
        </mxCell>
        <mxCell id="g2pflZfeuzNcTQA4xTUA-76" value="Criptografia" style="swimlane;fontStyle=1;align=center;verticalAlign=top;childLayout=stackLayout;horizontal=1;startSize=26;horizontalStack=0;resizeParent=1;resizeParentMax=0;resizeLast=0;collapsible=1;marginBottom=0;whiteSpace=wrap;html=1;" vertex="1" parent="1">
          <mxGeometry x="90" y="620" width="200" height="80" as="geometry" />
        </mxCell>
        <mxCell id="g2pflZfeuzNcTQA4xTUA-77" value="" style="line;strokeWidth=1;fillColor=none;align=left;verticalAlign=middle;spacingTop=-1;spacingLeft=3;spacingRight=3;rotatable=0;labelPosition=right;points=[];portConstraint=eastwest;strokeColor=inherit;" vertex="1" parent="g2pflZfeuzNcTQA4xTUA-76">
          <mxGeometry y="26" width="200" height="8" as="geometry" />
        </mxCell>
        <mxCell id="g2pflZfeuzNcTQA4xTUA-78" value="&lt;div&gt;&lt;div&gt;&lt;div&gt;&lt;div&gt;+ getMD5(String): String&lt;/div&gt;&lt;/div&gt;&lt;/div&gt;&lt;/div&gt;" style="text;strokeColor=none;fillColor=none;align=left;verticalAlign=top;spacingLeft=4;spacingRight=4;overflow=hidden;rotatable=0;points=[[0,0.5],[1,0.5]];portConstraint=eastwest;whiteSpace=wrap;html=1;" vertex="1" parent="g2pflZfeuzNcTQA4xTUA-76">
          <mxGeometry y="34" width="200" height="46" as="geometry" />
        </mxCell>
        <mxCell id="g2pflZfeuzNcTQA4xTUA-82" value="JPAUtil" style="swimlane;fontStyle=1;align=center;verticalAlign=top;childLayout=stackLayout;horizontal=1;startSize=26;horizontalStack=0;resizeParent=1;resizeParentMax=0;resizeLast=0;collapsible=1;marginBottom=0;whiteSpace=wrap;html=1;" vertex="1" parent="1">
          <mxGeometry x="410" y="520" width="200" height="160" as="geometry" />
        </mxCell>
        <mxCell id="g2pflZfeuzNcTQA4xTUA-83" value="- PERSISTENCE_UNIT: String&lt;div&gt;- em: EntityManager&lt;/div&gt;&lt;div&gt;- fabrica: EntityManagerFactory&lt;/div&gt;" style="text;strokeColor=none;fillColor=none;align=left;verticalAlign=top;spacingLeft=4;spacingRight=4;overflow=hidden;rotatable=0;points=[[0,0.5],[1,0.5]];portConstraint=eastwest;whiteSpace=wrap;html=1;" vertex="1" parent="g2pflZfeuzNcTQA4xTUA-82">
          <mxGeometry y="26" width="200" height="64" as="geometry" />
        </mxCell>
        <mxCell id="g2pflZfeuzNcTQA4xTUA-84" value="" style="line;strokeWidth=1;fillColor=none;align=left;verticalAlign=middle;spacingTop=-1;spacingLeft=3;spacingRight=3;rotatable=0;labelPosition=right;points=[];portConstraint=eastwest;strokeColor=inherit;" vertex="1" parent="g2pflZfeuzNcTQA4xTUA-82">
          <mxGeometry y="90" width="200" height="8" as="geometry" />
        </mxCell>
        <mxCell id="g2pflZfeuzNcTQA4xTUA-85" value="+ getEntityManager(): EntityManager&lt;div&gt;+ closeEntityManager(): void&lt;/div&gt;" style="text;strokeColor=none;fillColor=none;align=left;verticalAlign=top;spacingLeft=4;spacingRight=4;overflow=hidden;rotatable=0;points=[[0,0.5],[1,0.5]];portConstraint=eastwest;whiteSpace=wrap;html=1;" vertex="1" parent="g2pflZfeuzNcTQA4xTUA-82">
          <mxGeometry y="98" width="200" height="62" as="geometry" />
        </mxCell>
        <mxCell id="g2pflZfeuzNcTQA4xTUA-89" value="" style="line;strokeWidth=1;fillColor=none;align=left;verticalAlign=middle;spacingTop=-1;spacingLeft=3;spacingRight=3;rotatable=0;labelPosition=right;points=[];portConstraint=eastwest;strokeColor=inherit;" vertex="1" parent="1">
          <mxGeometry x="610" y="161" width="120" height="8" as="geometry" />
        </mxCell>
        <mxCell id="g2pflZfeuzNcTQA4xTUA-90" value="0...*" style="text;strokeColor=none;fillColor=none;align=left;verticalAlign=middle;spacingLeft=4;spacingRight=4;overflow=hidden;points=[[0,0.5],[1,0.5]];portConstraint=eastwest;rotatable=0;whiteSpace=wrap;html=1;" vertex="1" parent="1">
          <mxGeometry x="700" y="139" width="30" height="30" as="geometry" />
        </mxCell>
        <mxCell id="g2pflZfeuzNcTQA4xTUA-91" value="" style="line;strokeWidth=1;fillColor=none;align=left;verticalAlign=middle;spacingTop=-1;spacingLeft=3;spacingRight=3;rotatable=0;labelPosition=right;points=[];portConstraint=eastwest;strokeColor=inherit;" vertex="1" parent="1">
          <mxGeometry x="290" y="161" width="120" height="8" as="geometry" />
        </mxCell>
        <mxCell id="g2pflZfeuzNcTQA4xTUA-92" value="0...*" style="text;strokeColor=none;fillColor=none;align=left;verticalAlign=middle;spacingLeft=4;spacingRight=4;overflow=hidden;points=[[0,0.5],[1,0.5]];portConstraint=eastwest;rotatable=0;whiteSpace=wrap;html=1;" vertex="1" parent="1">
          <mxGeometry x="290" y="139" width="30" height="30" as="geometry" />
        </mxCell>
        <mxCell id="g2pflZfeuzNcTQA4xTUA-93" value="" style="endArrow=block;dashed=1;endFill=0;endSize=12;html=1;rounded=0;entryX=0.5;entryY=0;entryDx=0;entryDy=0;exitX=0.5;exitY=1.074;exitDx=0;exitDy=0;exitPerimeter=0;" edge="1" parent="1" source="g2pflZfeuzNcTQA4xTUA-46" target="g2pflZfeuzNcTQA4xTUA-64">
          <mxGeometry width="160" relative="1" as="geometry">
            <mxPoint x="200" y="280" as="sourcePoint" />
            <mxPoint x="250" y="510" as="targetPoint" />
          </mxGeometry>
        </mxCell>
        <mxCell id="g2pflZfeuzNcTQA4xTUA-94" value="" style="endArrow=block;dashed=1;endFill=0;endSize=12;html=1;rounded=0;entryX=0.5;entryY=0;entryDx=0;entryDy=0;exitX=0.5;exitY=1.074;exitDx=0;exitDy=0;exitPerimeter=0;" edge="1" parent="1">
          <mxGeometry width="160" relative="1" as="geometry">
            <mxPoint x="509.65999999999997" y="260" as="sourcePoint" />
            <mxPoint x="509.65999999999997" y="318" as="targetPoint" />
          </mxGeometry>
        </mxCell>
        <mxCell id="g2pflZfeuzNcTQA4xTUA-95" value="" style="endArrow=block;dashed=1;endFill=0;endSize=12;html=1;rounded=0;entryX=0.5;entryY=0;entryDx=0;entryDy=0;exitX=0.5;exitY=1.074;exitDx=0;exitDy=0;exitPerimeter=0;" edge="1" parent="1">
          <mxGeometry width="160" relative="1" as="geometry">
            <mxPoint x="829.66" y="262" as="sourcePoint" />
            <mxPoint x="829.66" y="320" as="targetPoint" />
          </mxGeometry>
        </mxCell>
        <mxCell id="g2pflZfeuzNcTQA4xTUA-96" value="" style="endArrow=block;dashed=1;endFill=0;endSize=12;html=1;rounded=0;exitX=1;exitY=0.5;exitDx=0;exitDy=0;entryX=1;entryY=0.25;entryDx=0;entryDy=0;" edge="1" parent="1" source="g2pflZfeuzNcTQA4xTUA-46" target="g2pflZfeuzNcTQA4xTUA-76">
          <mxGeometry width="160" relative="1" as="geometry">
            <mxPoint x="330" y="260" as="sourcePoint" />
            <mxPoint x="310" y="660" as="targetPoint" />
            <Array as="points">
              <mxPoint x="320" y="244" />
              <mxPoint x="320" y="640" />
            </Array>
          </mxGeometry>
        </mxCell>
        <mxCell id="g2pflZfeuzNcTQA4xTUA-97" value="" style="endArrow=block;dashed=1;endFill=0;endSize=12;html=1;rounded=0;exitX=1.002;exitY=1.003;exitDx=0;exitDy=0;entryX=-0.001;entryY=0.064;entryDx=0;entryDy=0;exitPerimeter=0;entryPerimeter=0;" edge="1" parent="1" source="g2pflZfeuzNcTQA4xTUA-44" target="g2pflZfeuzNcTQA4xTUA-83">
          <mxGeometry width="160" relative="1" as="geometry">
            <mxPoint x="310" y="224" as="sourcePoint" />
            <mxPoint x="310" y="480" as="targetPoint" />
            <Array as="points">
              <mxPoint x="350" y="220" />
              <mxPoint x="350" y="550" />
            </Array>
          </mxGeometry>
        </mxCell>
        <mxCell id="g2pflZfeuzNcTQA4xTUA-98" value="" style="endArrow=block;dashed=1;endFill=0;endSize=12;html=1;rounded=0;exitX=1;exitY=0.5;exitDx=0;exitDy=0;entryX=1;entryY=0.061;entryDx=0;entryDy=0;entryPerimeter=0;" edge="1" parent="1" target="g2pflZfeuzNcTQA4xTUA-83">
          <mxGeometry width="160" relative="1" as="geometry">
            <mxPoint x="610" y="230" as="sourcePoint" />
            <mxPoint x="610" y="526" as="targetPoint" />
            <Array as="points">
              <mxPoint x="640" y="230" />
              <mxPoint x="640" y="550" />
            </Array>
          </mxGeometry>
        </mxCell>
        <mxCell id="g2pflZfeuzNcTQA4xTUA-99" value="" style="endArrow=block;dashed=1;endFill=0;endSize=12;html=1;rounded=0;exitX=-0.008;exitY=0.063;exitDx=0;exitDy=0;entryX=1;entryY=0.531;entryDx=0;entryDy=0;exitPerimeter=0;entryPerimeter=0;" edge="1" parent="1" source="g2pflZfeuzNcTQA4xTUA-50" target="g2pflZfeuzNcTQA4xTUA-83">
          <mxGeometry width="160" relative="1" as="geometry">
            <mxPoint x="930" y="230" as="sourcePoint" />
            <mxPoint x="930" y="526" as="targetPoint" />
            <Array as="points">
              <mxPoint x="710" y="230" />
              <mxPoint x="710" y="580" />
            </Array>
          </mxGeometry>
        </mxCell>
        <mxCell id="g2pflZfeuzNcTQA4xTUA-102" value="" style="endArrow=block;dashed=1;endFill=0;endSize=12;html=1;rounded=0;exitX=0;exitY=0.5;exitDx=0;exitDy=0;entryX=0;entryY=0.25;entryDx=0;entryDy=0;" edge="1" parent="1" source="g2pflZfeuzNcTQA4xTUA-46" target="g2pflZfeuzNcTQA4xTUA-70">
          <mxGeometry width="160" relative="1" as="geometry">
            <mxPoint x="70" y="240" as="sourcePoint" />
            <mxPoint x="70" y="470" as="targetPoint" />
            <Array as="points">
              <mxPoint x="60" y="244" />
              <mxPoint x="60" y="540" />
            </Array>
          </mxGeometry>
        </mxCell>
        <mxCell id="g2pflZfeuzNcTQA4xTUA-105" value="Library System UML Diagram" style="swimlane;childLayout=stackLayout;resizeParent=1;resizeParentMax=0;horizontal=1;startSize=20;horizontalStack=0;html=1;" vertex="1" parent="1">
          <mxGeometry x="20" y="30" width="940" height="690" as="geometry" />
        </mxCell>
        <mxCell id="g2pflZfeuzNcTQA4xTUA-106" value="model" style="swimlane;startSize=20;horizontal=0;html=1;" vertex="1" parent="g2pflZfeuzNcTQA4xTUA-105">
          <mxGeometry y="20" width="940" height="240" as="geometry" />
        </mxCell>
        <mxCell id="g2pflZfeuzNcTQA4xTUA-107" value="dao" style="swimlane;startSize=20;horizontal=0;html=1;" vertex="1" parent="g2pflZfeuzNcTQA4xTUA-105">
          <mxGeometry y="260" width="940" height="200" as="geometry" />
        </mxCell>
        <mxCell id="g2pflZfeuzNcTQA4xTUA-108" value="util" style="swimlane;startSize=20;horizontal=0;html=1;" vertex="1" parent="g2pflZfeuzNcTQA4xTUA-105">
          <mxGeometry y="460" width="940" height="230" as="geometry" />
        </mxCell>
      </root>
    </mxGraphModel>
  </diagram>
</mxfile>
